<mxfile host="app.diagrams.net" modified="2024-01-16T03:20:55.464Z" agent="Mozilla/5.0 (Windows NT 10.0; Win64; x64) AppleWebKit/537.36 (KHTML, like Gecko) Chrome/120.0.0.0 Safari/537.36" version="22.1.18" etag="vLNT08d3h0zJ-m95v6k1" type="github">
  <diagram name="Page-1" id="4o9QpPy65Int9p9pG6Tx">
    <mxGraphModel>
      <root>
        <mxCell id="0" />
        <mxCell id="1" parent="0" />
      </root>
    </mxGraphModel>
  </diagram>
</mxfile>
